# xmcd
#
# Track frame offsets: 
#        150
#        12929
#        38327
#        53092
#        74070
#        108484
#        114229
#        135521
#        168784
#        171669
#        173030
#        180520
#        181470
#        182135
#        185509
#        202579
#        206803
#        214673
#        220616
#        230300
#        236638
#        251917
#        253756
#        274475
#        281475
#        297702
#        314778
#        330849
#
# Disc length: 4786 seconds
#
# Revision: 0
# Processed by: cddbd v1.5.2PL0 Copyright (c) Steve Scherf et al.
# Submitted via: ExactAudioCopy v0.95b3
#
DISCID=a812b01c
DTITLE=The Beatles  - AB  Road - Complete Purple Chick Set v1.1 Jan.24
DTITLE=Various Artist - D2  FLAC
DYEAR=1900
DGENRE=
TTITLE0=Two Of Us 24.27b
TTITLE1=Two Of Us 24.28
TTITLE2=Two Of Us 24.29
TTITLE3=Two Of Us 24.30
TTITLE4=Two Of Us 24.30P
TTITLE5=She Came In Through The Bathroom Window 24.31
TTITLE6=Teddy Boy 24.32
TTITLE7=Teddy Boy 24.33
TTITLE8=Teddy Boy 24.34
TTITLE9=Teddy Boy 24.35
TTITLE10=Teddy Boy 24.36
TTITLE11=Balls To Your Partner 24.37
TTITLE12=Ach Du Lieber Augustin 24.38
TTITLE13=Teddy Boy 24.39
TTITLE14=Two Of Us 24.40
TTITLE15=Maggie Mae 24.41
TTITLE16=I Fancy Me Chances 24.42
TTITLE17=Two Of Us 24.43
TTITLE18=Polythene Pam 24.44
TTITLE19=Improvisation 24.45
TTITLE20=Two Of Us 24.46
TTITLE21=Maggie Mae 24.47
TTITLE22=Two Of Us 24.48
TTITLE23=Maggie Mae 24.49
TTITLE24=Teddy Boy 24.33P
TTITLE25=Teddy Boy 24.33P
TTITLE26=Two Of Us 24.48P
TTITLE27=Maggie Mae 24.49P
EXTD=
EXTT0=
EXTT1=
EXTT2=
EXTT3=
EXTT4=
EXTT5=
EXTT6=
EXTT7=
EXTT8=
EXTT9=
EXTT10=
EXTT11=
EXTT12=
EXTT13=
EXTT14=
EXTT15=
EXTT16=
EXTT17=
EXTT18=
EXTT19=
EXTT20=
EXTT21=
EXTT22=
EXTT23=
EXTT24=
EXTT25=
EXTT26=
EXTT27=
PLAYORDER=
